<?xml version="1.0" encoding="UTF-8" standalone="no"?>
<!-- Created with Inkscape (http://www.inkscape.org/) -->

<svg
   width="400mm"
   height="400mm"
   viewBox="0 0 400 400"
   version="1.1"
   id="svg5"
   xml:space="preserve"
   inkscape:export-filename="Urroapurple"
   inkscape:export-xdpi="96"
   inkscape:export-ydpi="96"
   inkscape:version="1.2 (dc2aedaf03, 2022-05-15)"
   sodipodi:docname="urroa.svg"
   xmlns:inkscape="http://www.inkscape.org/namespaces/inkscape"
   xmlns:sodipodi="http://sodipodi.sourceforge.net/DTD/sodipodi-0.dtd"
   xmlns:xlink="http://www.w3.org/1999/xlink"
   xmlns="http://www.w3.org/2000/svg"
   xmlns:svg="http://www.w3.org/2000/svg"><sodipodi:namedview
     id="namedview7"
     pagecolor="#505050"
     bordercolor="#eeeeee"
     borderopacity="1"
     inkscape:showpageshadow="0"
     inkscape:pageopacity="0"
     inkscape:pagecheckerboard="0"
     inkscape:deskcolor="#505050"
     inkscape:document-units="mm"
     showgrid="false"
     inkscape:zoom="0.20526726"
     inkscape:cx="601.65464"
     inkscape:cy="677.16595"
     inkscape:window-width="1366"
     inkscape:window-height="705"
     inkscape:window-x="-8"
     inkscape:window-y="-8"
     inkscape:window-maximized="1"
     inkscape:current-layer="layer1" /><defs
     id="defs2"><linearGradient
       inkscape:collect="always"
       id="linearGradient22364"><stop
         style="stop-color:#e7aef5;stop-opacity:1;"
         offset="0"
         id="stop22360" /><stop
         style="stop-color:#ffffff;stop-opacity:1;"
         offset="1"
         id="stop22362" /></linearGradient><radialGradient
       inkscape:collect="always"
       xlink:href="#linearGradient22364"
       id="radialGradient22366"
       cx="122.56196"
       cy="214.41852"
       fx="122.56196"
       fy="214.41852"
       r="90.863153"
       gradientTransform="matrix(1,0,0,0.9236591,0,16.368904)"
       gradientUnits="userSpaceOnUse" /><linearGradient
       inkscape:collect="always"
       id="linearGradient20586"><stop
         style="stop-color:#3c0247;stop-opacity:1;"
         offset="0"
         id="stop20582" /><stop
         style="stop-color:#e001ed;stop-opacity:1;"
         offset="0.52934557"
         id="stop21288" /><stop
         style="stop-color:#820083;stop-opacity:1;"
         offset="1"
         id="stop20584" /></linearGradient><linearGradient
       inkscape:collect="always"
       xlink:href="#linearGradient20586"
       id="linearGradient2883"
       x1="114.12444"
       y1="136.20015"
       x2="203.06245"
       y2="302.41937"
       gradientUnits="userSpaceOnUse"
       gradientTransform="scale(0.9984703,1.0015321)" /></defs><g
     inkscape:label="Layer 1"
     inkscape:groupmode="layer"
     id="layer1"><path
       id="rect4343-1"
       style="fill:#bbbbbb;fill-opacity:1;stroke:#ffffff;stroke-width:4;stroke-dasharray:none;stroke-opacity:1;stop-color:#000000"
       d="M 324.30593,318.38536 C 342.07321,305.52073 341.8617,285.9437 335.28598,266.81907 295.1469,159.51089 215.9852,59.728011 102.62907,31.637608 43.735196,19.819208 53.880716,105.16639 53.880716,105.16639 -5.1472745,-18.997812 145.73197,3.7732276 208.2829,46.914864 297.46297,103.90933 350.13664,180.28218 374.13681,260.99741 399.0614,383.49737 264.55577,374.4685 225.74129,334.57192 c -2.49011,-3.00934 -8.62847,-36.9152 4.63649,-32.84551 27.27095,8.36673 78.36279,29.25518 93.92815,16.65895 z"
       sodipodi:nodetypes="cccccccsc" /><path
       id="path2952"
       style="fill:#ffffff;stroke-width:4;stop-color:#000000;fill-opacity:0.71671385"
       d="M 101.20312 14.096814 C 54.654016 13.482509 21.441002 36.833886 54.64421 106.67618 C 54.64421 106.67618 44.498845 21.328947 103.39266 33.147331 C 189.3192 54.440504 255.57626 116.94112 300.10365 192.67454 A 274.55063 132.7639 0 0 0 340.11722 182.2049 C 310.81183 132.05709 267.87709 86.022615 209.04667 48.424434 C 181.68067 29.549987 137.40799 14.574607 101.20312 14.096814 z " /><g
       aria-label="Ü"
       transform="scale(1.016061,0.98419287)"
       id="text186"
       style="font-weight:bold;font-size:187.475px;font-family:'Ironmonger Black';-inkscape-font-specification:'Ironmonger Black,  Bold';fill:#bbbbbb;stroke:#ffffff;stroke-width:4"><g
         id="path14033"><path
           style="color:#000000;-inkscape-font-specification:'Super Brigade Bold';stroke:none;-inkscape-stroke:none"
           d="m 101.4741,160.58775 13.87315,-34.68288 h 39.7447 l -13.87315,34.68288 z m 50.2433,0 13.87315,-34.68288 h 39.7447 l -13.87315,34.68288 z m 83.05143,10.87355 -46.49381,115.10965 H 21.047319 c -2.9996,0 -5.436775,-0.56242 -7.12405,-2.06222 -1.687275,-1.4998 -2.812125,-3.18708 -3.562025,-5.2493 -0.7499001,-2.06223 -0.9373751,-4.31193 -0.7499001,-6.7491 0.187475,-2.43718 0.7499001,-4.68688 1.6872751,-6.93658 L 49.356045,171.4613 H 120.2216 l -35.432779,87.7383 c -0.37495,1.12485 -0.562425,2.06223 -0.37495,2.81213 0.187475,0.93737 0.937375,1.31232 2.062225,1.31232 H 126.59575 L 163.7158,171.4613 Z"
           id="path14038" /><path
           style="color:#000000;-inkscape-font-specification:'Super Brigade Bold';fill:#ffffff;stroke:none;-inkscape-stroke:none"
           d="m 113.99414,123.9043 -15.474609,38.68359 h 2.955079 41.09766 l 15.4746,-38.68359 z m 50.24219,0 -15.47266,38.68359 h 2.95313 41.09961 l 15.47265,-38.68359 z m -47.53516,4 h 35.43555 l -12.27149,30.68359 h -35.4375 z m 50.24414,0 h 35.43555 l -12.27344,30.68359 H 154.67187 Z M 48.007812,169.46094 9.453125,264.80469 c -2.409e-4,5.8e-4 2.409e-4,0.001 0,0.002 -1.0097742,2.42393 -1.6322697,4.9031 -1.8359375,7.55078 -0.2025134,2.63267 -0.00772,5.1853 0.8652344,7.58594 0.8496779,2.33661 2.1972531,4.35915 4.1113281,6.06055 2.216475,1.9702 5.20353,2.5664 8.453125,2.5664 H 189.625 l 48.10937,-119.10937 h -2.96484 -72.40234 l -37.1211,91.86328 H 86.476562 c -0.07891,0 -0.02758,0.002 -0.08203,-0.004 -0.0037,-0.17341 0.0061,-0.61109 0.28711,-1.46679 l 36.503909,-90.39258 z m 2.697266,4 h 66.552732 l -34.347654,85.04687 -0.01953,0.0586 c -0.411905,1.23571 -0.756511,2.46679 -0.419922,3.8789 0.194799,0.90721 0.806193,1.81653 1.59375,2.28906 0.799876,0.47993 1.627463,0.58985 2.412109,0.58985 h 41.468748 l 37.11914,-91.86328 h 66.74024 L 186.92578,284.57031 H 21.046875 c -2.749599,0 -4.63685,-0.52724 -5.794922,-1.55664 -1.460472,-1.2982 -2.361598,-2.64967 -3.011719,-4.4375 -0.626839,-1.72381 -0.807201,-3.67044 -0.634765,-5.91211 0.171233,-2.22603 0.674515,-4.2454 1.539062,-6.32031 l 0.0039,-0.01 z"
           id="path14040" /></g></g><path
       id="path701"
       style="fill:#ffffff;fill-opacity:0.71671385;stroke-width:4;stop-color:#000000"
       d="M 116.67867 125.94115 L 102.58237 160.07602 L 142.96543 160.07602 L 157.06173 125.94115 L 116.67867 125.94115 z M 167.72878 125.94115 L 153.633 160.07602 L 194.01555 160.07602 L 208.11184 125.94115 L 167.72878 125.94115 z M 49.627462 170.77769 L 12.71912 259.18418 A 253.03661 116.57513 0 0 0 73.373816 262.63668 A 253.03661 116.57513 0 0 0 112.33423 261.18819 L 87.343506 261.18819 C 86.200591 261.18819 85.438512 260.81884 85.248027 259.89628 C 85.057541 259.15824 85.248427 258.23608 85.629399 257.12901 L 121.63134 170.77769 L 49.627462 170.77769 z M 165.82399 170.77769 L 128.70481 259.75624 A 253.03661 116.57513 0 0 0 207.08555 244.95817 L 238.01803 170.77769 L 165.82399 170.77769 z " /></g></svg>
